<svg width="58" height="81" fill="none" xmlns="http://www.w3.org/2000/svg"><g opacity=".1"><path d="M25.692 17.704c-.74-1.01-2.007-1.693-3.264-1.79-1.5-.115-2.874.385-3.897 1.473-.77.817-1.15 1.885-1.5 2.924-.195.558-.439 1.116-.536 1.703a3.286 3.286 0 0 0-1.656.606c-.721.52-1.16 1.3-1.55 2.078-.399.8-.584 1.694-.448 2.589.059.365.166.721.263 1.077 0 .02.01.039.02.067a12.96 12.96 0 0 0-.36.453c-.702.933-1.193 1.98-.764 3.116.185.48.217 1.057.5 1.5.205.452.669 1.124 1 1.5.214.308.647.205.92.474a4.389 4.389 0 0 0-.39.683c-.341.722-.244 1.492.127 2.107.01.02.02.039.02.058a4.058 4.058 0 0 0 2.396 2.242 3.71 3.71 0 0 0 1.276.192c.068.375.205.731.39 1.078.623 1.145 1.092 2.03 2.261 2.666.273.154.818.364 1.12.45-.069.386-.098.77-.108 1.175-.01.615-.051 1.259-.012 1.875.01.135-.01.355 0 .5-.039.298.052.472-.026.77-.098.337-.147.709 0 1.045-.234.472-.244.947-.273 1.467-.01.212.243.289.39.192.038.01.068.01.107 0 .068-.019.136-.028.204-.048a.207.207 0 0 0 .156.058c1.286.038 2.611.173 3.888.01.272-.039.535-.097.798-.154.332-.077.595-.058.926-.039.068 0 .127 0 .195-.01.107.145.36.078.429-.086.068-.183.126-.356.165-.548.02-.097.119-.1.041-.157.282-.404.28-.998.252-1.527-.069-1.145-.224-2.28-.273-3.425-.01-.318-.02-.626-.02-.943v-.615a37.218 37.218 0 0 1 .448-5.1c.186-1.232.351-2.53.04-3.752a6.075 6.075 0 0 0-.156-.5c.01-.203.019-.405.019-.607.059-2.164.117-4.33.166-6.494.02-.577-.04-1.078-.41-1.559-.068-.096.031-.392-.066-.478.068-.962-.04-1.715.057-2.677.078-.818.106-1.9-.557-2.323 0 .038 0-.048 0 0-.107-.78-.749-1.381-1.246-1.968-.097-.116-.214-.318-.312-.424" fill="#C7C8CA"/><path opacity=".2" d="M28.517 27.269c-.069-.539-.254-1.03-.293-1.568a.592.592 0 0 0-.087-.25c.078-.241.136-.491.165-.76.059-.491.04-.992.03-1.482-.01-.943-.03-1.896-.186-2.829-.282-1.636-1.256-2.973-2.747-3.752C22.329 15.04 17.838 16.575 17 20c-.214.885-.058 1.596 0 2.5.049.818.264 1.96 1.082 2.344.175.077.41-.057.341-.26-.41-1.298-.546-2.578-.302-3.925.263-1.424 1.052-2.54 2.387-3.165 1.335-.626 3.01-.635 4.316.086 1.179.645 1.91 1.819 2.134 3.118.146.885.136 1.799.146 2.694 0 .433-.02.865.01 1.298.02.231.058.443.107.655-.585-.058-1.267.202-1.627.606-.546.596-.936 1.991-.04 2.463.186.096.498.067.595-.154.098-.222.146-.385.156-.616 0-.192.049-.356.137-.53a.905.905 0 0 1 .43-.373h.5s.5 0 .5.5c-.02.53.304 2.48.352 3 .04.414.088.83.108 1.244-.02.212-.04.546-.059.758-.097.818-.058.856 0 0 .088-1.135.175-2.27.253-3.396.04-.53.059-1.049-.01-1.578Zm-12.071-4.918c-.058-.048-.146-.077-.195-.125-.097-.116-.234-.02-.263.096-.136.048-.273.106-.38.144-.292.106-.584.212-.867.337-.555.26-1.023.635-1.325 1.174-.594 1.039-1.315 2.81-.672 3.954a.57.57 0 0 0 .419.27 5.364 5.364 0 0 0-.215.279c-.71.981-.847 2.212-.672 3.377a6.122 6.122 0 0 0 1.315 2.992c.478.587 1.706 1.924 2.582 1.443.098-.058.176-.173.166-.289-.03-.385-.331-.644-.614-.885-.331-.298-.662-.577-.935-.933-.526-.683-.916-1.434-1.101-2.28-.175-.837-.146-1.76.312-2.502a3.1 3.1 0 0 1 .838-.866c.38-.269.604-.471.798-.894.059-.126.04-.27-.097-.356-.633-.385-1.267-.125-1.802.308 0-.203-.04-.414-.059-.587-.068-.645.136-1.3.331-1.905.195-.635.42-1.155 1.014-1.52.428-.27 1.09-.395 1.412-.79.108-.144.146-.327.01-.442Z" fill="#505050"/><path opacity=".2" d="M17.85 32.732c-.332-.298-.76-.308-1.112-.568-.263-.192-.477-.48-.516-.808a1.57 1.57 0 0 1 .185-.981c.185-.327.478-.577.614-.914.097-.221-.185-.49-.41-.404-.574.212-1.003.346-1.373.875a2.44 2.44 0 0 0-.438 1.79c.097.645.438 1.241.954 1.655.527.423 1.316.798 1.969.423.35-.221.457-.78.126-1.068Zm7.258-2.511c-.02-.192-.283-.289-.38-.106-.565 1.03-1.218 2.223-2.446 2.511-.487.116-1.266.193-1.734-.057-.263-.135-.429-.433-.604-.655a5.807 5.807 0 0 0-.312-.375c-.097-.096-.273-.173-.34-.289a.1.1 0 0 0-.128-.038c-.896.49-.272 1.636.244 2.203.672.732 1.832.837 2.767.712.867-.115 1.773-.471 2.348-1.154.682-.799.663-1.751.585-2.752Zm-1.93-4.589c-.409-.741-1.422-.712-2.055-.299-.604.395-1.082 1.069-1.277 1.761-.194.712-.01 1.415.439 1.992.195.25.419.462.643.683.224.221.419.471.73.587.147.057.312-.058.351-.193.234-.866-.993-1.433-1.003-2.29-.01-.442.214-.885.516-1.202.137-.145.332-.356.546-.337.331.029.409.231.78.106.34-.125.506-.481.33-.808Zm2.446 15.008c-.429.049-.809.26-1.237.318-.4.048-.838.01-1.209-.144-.34-.135-.662-.385-.789-.731-.087-.231-.058-.481-.058-.722-.01-.279-.136-.423-.185-.664-.03-.125-.195-.221-.322-.173-.682.27-.838 1-.76 1.674.078.712.556 1.29 1.14 1.684.556.375 1.238.548 1.91.548.643-.01 1.549-.135 2.007-.625.36-.395.136-1.222-.497-1.164Z" fill="#505050"/><path opacity=".2" d="M24.085 43.45c-1.569.414-3.527.077-4.239-1.559-.33-.75-.302-1.731-.204-2.53.107-.827.35-1.703.643-2.482.03-.077-.02-.173-.088-.202-.136-.068-.214-.116-.36-.068-.02.01-.04.039-.03.058.03.029.05.067.069.096-.858.607-1.296 1.482-1.5 2.512-.235 1.125-.254 2.318.253 3.386 1.013 2.165 3.673 2.877 5.865 2.223.916-.28.526-1.675-.41-1.434Z" fill="#505050"/><path opacity=".2" d="M27.729 50.3c-.955.173-1.92-.048-2.865-.192-.76-.116-1.51-.202-2.26-.135-.117-.635-.088-1.28-.059-1.934.049-.837.263-1.962-.146-2.732-.185-.337-.633-.27-.828 0-.283.385-.302.885-.35 1.347-.06.52-.108 1.03-.147 1.549-.068.943-.068 1.895.244 2.8.136.384.263 1.093.682.997.945-.231 2.055-.154 3 0 1.013.163 1.977.192 3 0 .965-.164.683-1.873-.271-1.7Z" fill="#505050"/><path d="M35.153 6.688c-.565.75-1.014 1.645-1.481 2.463-.224.385-1.15 1.77-.439 2.107.819.404 1.433-.78 1.793-1.328.516-.789 1.12-1.587 1.53-2.424.467-.953-.78-1.636-1.403-.818Zm11.399 5.07c-.965.096-1.949.837-2.709 1.405a12.15 12.15 0 0 0-1.15.952c-.34.318-.788.741-.857 1.222-.058.404.224.731.653.645.439-.087.8-.452 1.13-.731a13.838 13.838 0 0 1 2.173-1.501c.429-.24.926-.404 1.286-.741.429-.414.117-1.318-.526-1.25Zm-23.675-1.27c-.205-.895-.8-1.78-1.306-2.55-.516-.779-1.12-1.635-1.958-2.087-.624-.337-1.277.365-.945.923.33.75.867 1.395 1.305 2.088.468.741.78 1.578 1.267 2.31.555.827 1.87.317 1.637-.684Zm-8.243 3.56c-.468-.24-.994-.366-1.5-.52a37.099 37.099 0 0 0-1.472-.442c-.672-.183-2.046-.597-2.543.115a.242.242 0 0 0-.039.164c0 .135.04.26.108.365 0 .02.02.039.029.049.127.182.331.336.487.471.38.308.896.472 1.354.635.448.173.906.308 1.364.462.478.154.965.375 1.462.452.477.067.945-.077 1.14-.548.175-.433.048-.982-.39-1.203ZM9.82 22.591c-.837-.192-1.763-.163-2.63-.22-.672-.049-1.86-.26-2.357.298-.127.134-.176.355-.069.529.42.654 1.54.625 2.241.692.848.077 1.764.25 2.611.202.829-.067 1.101-1.308.205-1.5Zm42.5-4.541c-.536-.288-1.082-.163-1.657-.057a14.35 14.35 0 0 0-1.539.375 6.388 6.388 0 0 0-1.393.596c-.224.135-.39.308-.536.51-.097.135-.156.366-.253.472-.137.134.01.317.175.298.01 0 .03 0 .04-.01.262.164.69.154.973.116.487-.068.984-.24 1.452-.375.448-.126.906-.231 1.374-.308.565-.097 1.052-.097 1.52-.472.37-.288.243-.933-.156-1.145Zm1.783 10.487c-.79-.48-2.007-.5-2.904-.442-.643.038-2.094.25-1.938 1.183.116.712 1.422.693 1.938.731.36.03.712.077 1.072.135.438.077.887.231 1.335.221.994-.019 1.344-1.318.497-1.828ZM9.47 32.915c-.253-1.29-1.939-.818-2.786-.577-1.004.288-2.241.596-2.884 1.453-.117.153-.098.432 0 .586.01.02.097.164.204.212.098.038.185.077.302.077.02 0 .195-.029.254-.048h.204c.497-.039 1.023-.231 1.51-.366.468-.125.936-.25 1.413-.356.38-.086.653.01 1.033-.01.526-.028.848-.461.75-.971Zm2.718 7.37c-.867.048-1.675.856-2.328 1.366-.653.51-1.462 1.097-1.851 1.828-.254.462.175 1.203.76.981.76-.298 1.432-.904 2.085-1.395.33-.24.662-.48.994-.712.36-.25.818-.51 1.013-.923.224-.491-.04-1.184-.673-1.145Zm2.358 5.647c-.594.626-.857 1.55-1.188 2.329-.341.798-.497 1.51-.4 2.376 0 .038.049.077.088.048a4.844 4.844 0 0 0 1.549-1.703c.41-.731 1.042-1.481 1.237-2.3.176-.711-.74-1.327-1.286-.75ZM53.85 36.35c-.38-.934-1.51-1.116-2.388-1.434-.409-.144-.818-.308-1.256-.337-.39-.029-.955.183-.926.664.049.837 1.003 1.251 1.676 1.559.75.346 1.724.914 2.523.433.283-.164.497-.558.37-.885Zm-1.861 5.85c-.712-.338-1.491-.55-2.232-.819-.604-.22-1.441-.663-2.085-.48a.498.498 0 0 0-.34.586c.146.683 1.061 1.213 1.617 1.55.672.403 1.471.827 2.24 1 .498.106 1.014-.106 1.209-.587.185-.423.058-1.03-.41-1.25Zm-4.18 6.551c-.215-.76-1.023-1.328-1.578-1.847a15.61 15.61 0 0 0-.848-.75c-.35-.29-.643-.405-1.062-.578-.439-.182-.935.356-.78.77.147.375.254.674.507.991.253.317.516.625.79.933.516.587 1.051 1.376 1.821 1.607.692.221 1.335-.462 1.15-1.126Z" fill="#505050"/><path d="M46.036 31.087c0 6.061-3.605 11.295-8.818 13.72v7.11H30.69V15.934c8.477 0 15.346 6.783 15.346 15.153Z" fill="#FFD335" stroke="#505050" stroke-miterlimit="10" stroke-linecap="round" stroke-linejoin="round"/><path d="M35.299 53.485v4.599c0 1.231-1.013 2.241-2.27 2.241h-7.327c-1.247 0-2.27-1-2.27-2.241v-4.6h11.867Z" stroke="#505050" stroke-miterlimit="10"/><path d="M17.937 24.68c-1.569-2.204-1.18-5.63 1.14-7.207 2.338-1.587 5.777-1.078 7.375 1.29.848 1.26 1.306 2.866 1.598 4.338.302 1.51.214 2.983.214 4.503v24.447l.488-.48c-2.553-.049-5.096-.087-7.649-.136l.487.482.03-6.745c0-.615-.975-.615-.975 0l-.029 6.745c0 .26.224.48.487.48 2.553.049 5.096.087 7.649.135a.492.492 0 0 0 .487-.48V39.447c0-4.166-.098-8.342 0-12.508.039-1.626 0-3.194-.41-4.791-.38-1.51-.896-3.117-1.9-4.358-1.919-2.377-5.592-2.877-8.174-1.26-2.864 1.789-3.585 5.926-1.656 8.639.35.5 1.198.02.838-.49Z" fill="#505050"/><path d="M16.33 21.1c-3.177 1.116-5.009 4.493-4.141 7.726.155.596 1.1.346.935-.26-.721-2.703.789-5.6 3.459-6.542.594-.202.34-1.135-.254-.924Z" fill="#505050"/><path d="M14.731 26.69c-1.178-.096-2.143 1.116-2.65 2.04a5.543 5.543 0 0 0-.652 3.386c.292 2.252 2.065 4.128 4.286 4.657.614.144.868-.78.264-.924-1.754-.413-3.186-1.808-3.537-3.57a4.593 4.593 0 0 1 .292-2.655c.302-.721 1.072-2.03 1.997-1.953.624.03.624-.933 0-.98Z" fill="#505050"/><path d="M13.806 35.426c-.819 1.068-.692 2.607.039 3.695.799 1.202 2.163 1.847 3.517 2.26.604.183.857-.74.263-.923-1.052-.318-2.163-.789-2.845-1.693-.633-.828-.78-1.992-.127-2.848.37-.5-.477-.972-.847-.49Z" fill="#505050"/><path d="M19.281 36.398c-1.792 1.847-2.367 4.656-1.12 6.946 1.305 2.415 4.082 2.838 6.547 2.155.604-.163.351-1.096-.263-.923-2.056.577-4.345.317-5.446-1.713-1.033-1.914-.516-4.262.964-5.782.439-.452-.253-1.135-.682-.683Z" fill="#505050"/><path d="M21.094 38.534c-.81 1.318-.517 3.146.73 4.098 1.247.953 3.118.76 4.2-.337.438-.442-.254-1.125-.692-.683-.75.76-2.056.924-2.923.26s-1.043-1.953-.487-2.857c.34-.53-.497-1.02-.828-.481Zm2.728-2.694c.243 2.184 2.679 3.434 4.579 2.184.516-.337.029-1.174-.487-.828-1.228.809-2.943.164-3.118-1.356-.068-.616-1.043-.616-.974 0Zm.565-4.984c-.069 1.472-1.004 2.877-2.543 3.146-1.423.25-2.835-.75-2.826-2.222 0-.616-.974-.616-.974 0-.01 1.982 1.832 3.434 3.78 3.184 2.105-.26 3.44-2.116 3.537-4.118.03-.606-.945-.606-.974.01Z" fill="#505050"/><path d="M21.688 29.99c-.906-.693-1.686-1.693-1.569-2.896.098-1.058 1.16-2.097 2.28-1.587.565.26 1.062-.578.487-.828-1.49-.673-3.156.193-3.624 1.703-.507 1.655.429 3.29 1.734 4.282.487.384 1.179-.299.692-.674Zm-1.628-7.399c-.184-1.462.887-2.838 2.456-2.722 1.481.115 2.338 1.578 1.968 2.925-.166.596.77.856.935.26.536-1.915-.72-3.916-2.757-4.128-2.104-.221-3.829 1.626-3.575 3.666.068.606 1.052.615.974 0Zm5.73 5.427c-.488-.79-.146-1.847.808-2.069.965-.211 1.746.597 1.668 1.51-.05.617.895.617.944 0 .126-1.558-1.335-2.809-2.875-2.443-1.559.366-2.211 2.165-1.393 3.483.341.529 1.179.048.848-.481Zm-9.636 1c-1.12.568-1.773 1.848-1.52 3.07.253 1.24 1.383 2.107 2.62 2.222.624.058.624-.904 0-.962-.808-.077-1.548-.722-1.685-1.52-.136-.818.351-1.617 1.072-1.982.555-.28.068-1.107-.487-.828Z" fill="#505050"/><path d="M23.714 58.084h11.293M23.675 55.65h11.37" stroke="#505050" stroke-miterlimit="10" stroke-linecap="round" stroke-linejoin="round"/><path d="M31.84 60.547c0 1.347-1.11 2.444-2.475 2.444-1.364 0-2.474-1.097-2.474-2.444 0-.077 0-.154.01-.231h4.92c.01.077.02.154.02.23Z" fill="#FFD335" stroke="#505050" stroke-miterlimit="10"/><path d="M30.69 35.686c2.105.24 3.722-.058 4.726-.337 1.218-.337 2.29-.654 2.533-1.491.244-.828-.36-1.982-1.072-2.117-1.393-.27-3.118 3.368-3.351 3.887a41.716 41.716 0 0 0-.643 3.04c-.838 5.08-.488 9.621.194 13.239" stroke="#505050" stroke-miterlimit="10"/><path d="M32.766 18.849c1.48.366 2.962.789 4.277 1.568 1.188.702 2.172 1.684 2.971 2.79 1.735 2.396 3.06 5.33 3.196 8.294.04.923 1.5.933 1.462 0-.137-3.262-1.55-6.533-3.488-9.15-.916-1.241-1.998-2.338-3.332-3.146-1.442-.866-3.07-1.357-4.697-1.76-.916-.212-1.305 1.173-.39 1.404Z" fill="#fff"/></g></svg>