<svg width="214" height="99" fill="none" xmlns="http://www.w3.org/2000/svg"><path d="M67 40.375v6.175a.44.44 0 0 1-.125.325.44.44 0 0 1-.325.125h-3.5a.44.44 0 0 1-.325-.125.44.44 0 0 1-.125-.325V30.425a.41.41 0 0 1 .125-.3c.083-.1.192-.15.325-.15h11.525c.117 0 .217.05.3.15.1.083.15.183.15.3v3c0 .117-.05.225-.15.325a.41.41 0 0 1-.3.125H67v2.6h6.5c.133 0 .242.05.325.15a.41.41 0 0 1 .125.3v3a.498.498 0 0 1-.125.325.44.44 0 0 1-.325.125H67Zm21.653-2.3c0 1.017-.25 1.867-.75 2.55-.383.567-.908 1.025-1.575 1.375l2.7 4.225c.133.183.175.358.125.525-.05.167-.192.25-.425.25h-3.45c-.4 0-.683-.15-.85-.45l-2.125-3.775h-1.275v3.775c0 .133-.05.242-.15.325a.41.41 0 0 1-.3.125h-3.15a.498.498 0 0 1-.325-.125.44.44 0 0 1-.125-.325v-12.7a.44.44 0 0 1 .125-.325.498.498 0 0 1 .325-.125h6.025c1.133 0 2.125.225 2.975.675 1.484.8 2.225 2.133 2.225 4ZM83.228 36.9h-2.2v2.4h2.15c.467 0 .809-.108 1.025-.325.2-.2.3-.492.3-.875 0-.367-.1-.65-.3-.85-.233-.233-.558-.35-.975-.35Zm8.092-3.5h9.95c.116 0 .216.042.3.125.1.083.15.192.15.325v2.7c0 .133-.05.242-.15.325a.411.411 0 0 1-.3.125h-6.35v1.35h5.325c.133 0 .241.042.325.125a.441.441 0 0 1 .125.325v2.7a.441.441 0 0 1-.125.325.441.441 0 0 1-.325.125H94.92v1.45h6.35c.116 0 .216.042.3.125.1.083.15.192.15.325v2.7c0 .133-.05.242-.15.325a.411.411 0 0 1-.3.125h-9.95a.498.498 0 0 1-.325-.125.44.44 0 0 1-.125-.325v-12.7a.44.44 0 0 1 .125-.325.498.498 0 0 1 .325-.125ZM108.28 44c.467 0 .834-.092 1.1-.275.234-.15.35-.383.35-.7 0-.3-.15-.542-.45-.725-.283-.183-.708-.358-1.275-.525-1.666-.467-2.858-.992-3.575-1.575-.85-.683-1.275-1.708-1.275-3.075 0-1.117.45-2.042 1.35-2.775.984-.767 2.334-1.15 4.05-1.15 1.684 0 3.2.408 4.55 1.225.2.117.25.3.15.55l-1.1 2.275c-.116.25-.291.3-.525.15-1.183-.65-2.291-.975-3.325-.975-.4 0-.716.067-.95.2a.55.55 0 0 0-.3.5c0 .267.125.475.375.625.25.15.634.3 1.15.45.084.017.309.075.675.175.384.1.642.175.775.225.15.05.367.125.65.225.3.083.559.183.775.3.217.117.434.242.65.375 1.084.733 1.625 1.825 1.625 3.275 0 1.317-.491 2.375-1.475 3.175-1.033.833-2.375 1.25-4.025 1.25-1.816 0-3.458-.408-4.925-1.225-.233-.133-.283-.325-.15-.575l1.075-2.275c.117-.25.3-.3.55-.15 1.117.683 2.284 1.025 3.5 1.025Zm16.558-10.6h3.15a.44.44 0 0 1 .325.125.441.441 0 0 1 .125.325v12.7a.441.441 0 0 1-.125.325.44.44 0 0 1-.325.125h-3.15a.44.44 0 0 1-.325-.125.441.441 0 0 1-.125-.325v-4.6h-4.225v4.6c0 .133-.05.242-.15.325a.408.408 0 0 1-.3.125h-3.15a.497.497 0 0 1-.325-.125.441.441 0 0 1-.125-.325v-12.7c0-.133.042-.242.125-.325a.497.497 0 0 1 .325-.125h3.15a.41.41 0 0 1 .3.125c.1.083.15.192.15.325v4.45h4.225v-4.45c0-.133.042-.242.125-.325a.44.44 0 0 1 .325-.125Zm25.999 8.95c0 1.483-.575 2.633-1.725 3.45-1.133.8-2.466 1.2-4 1.2h-6.575a.441.441 0 0 1-.325-.125.441.441 0 0 1-.125-.325V30.425a.41.41 0 0 1 .125-.3c.084-.1.192-.15.325-.15h4.975c1.884 0 3.334.383 4.35 1.15 1.05.817 1.575 1.875 1.575 3.175 0 1.733-.691 2.925-2.075 3.575v.1c2.317.583 3.475 2.042 3.475 4.375Zm-5.825-7.275c0-.55-.175-.958-.525-1.225-.266-.217-.616-.325-1.05-.325h-.95v3.05h.75c.4 0 .742-.067 1.025-.2.5-.25.75-.683.75-1.3Zm1.325 6.7c0-.7-.341-1.183-1.025-1.45-.366-.15-.883-.225-1.55-.225h-1.275v3.325h1.625c.584 0 1.025-.058 1.325-.175.6-.25.9-.742.9-1.475Zm18.658-3.7c0 1.017-.25 1.867-.75 2.55-.383.567-.908 1.025-1.575 1.375l2.7 4.225c.133.183.175.358.125.525-.05.167-.192.25-.425.25h-3.45c-.4 0-.683-.15-.85-.45l-2.125-3.775h-1.275v3.775c0 .133-.05.242-.15.325a.408.408 0 0 1-.3.125h-3.15a.497.497 0 0 1-.325-.125.441.441 0 0 1-.125-.325v-12.7c0-.133.042-.242.125-.325a.497.497 0 0 1 .325-.125h6.025c1.133 0 2.125.225 2.975.675 1.483.8 2.225 2.133 2.225 4ZM159.57 36.9h-2.2v2.4h2.15c.467 0 .808-.108 1.025-.325.2-.2.3-.492.3-.875 0-.367-.1-.65-.3-.85-.233-.233-.558-.35-.975-.35Zm10.917 7.725-.575 1.875c-.1.333-.35.5-.75.5h-3.1c-.267 0-.401-.117-.401-.35 0-.05.017-.142.051-.275l4.6-12.525c.1-.3.333-.45.7-.45h3.05c.366 0 .6.15.7.45l4.4 12.525a1.4 1.4 0 0 1 .05.275c0 .233-.134.35-.4.35h-3.05c-.4 0-.65-.167-.75-.5l-.6-1.875h-3.925Zm2.975-3.125-.975-3.1-1 3.1h1.975Zm7.25-7.65c0-.133.042-.242.125-.325a.5.5 0 0 1 .325-.125h3.15a.41.41 0 0 1 .3.125c.1.083.15.192.15.325v12.7c0 .133-.05.242-.15.325a.408.408 0 0 1-.3.125h-3.15a.5.5 0 0 1-.325-.125.441.441 0 0 1-.125-.325v-12.7ZM199.793 47h-2.15c-.283 0-.55-.15-.8-.45l-5.175-6.275v6.275c0 .133-.05.242-.15.325a.408.408 0 0 1-.3.125h-2.95a.497.497 0 0 1-.325-.125.441.441 0 0 1-.125-.325v-12.7c0-.133.042-.242.125-.325a.497.497 0 0 1 .325-.125h2.175c.3 0 .567.15.8.45l5.15 6.275V33.85c0-.133.042-.242.125-.325a.44.44 0 0 1 .325-.125h2.95a.44.44 0 0 1 .325.125.441.441 0 0 1 .125.325v12.7a.441.441 0 0 1-.125.325.44.44 0 0 1-.325.125Zm7.853-3c.467 0 .834-.092 1.1-.275.234-.15.35-.383.35-.7 0-.3-.15-.542-.45-.725-.283-.183-.708-.358-1.275-.525-1.666-.467-2.858-.992-3.575-1.575-.85-.683-1.275-1.708-1.275-3.075 0-1.117.45-2.042 1.35-2.775.984-.767 2.334-1.15 4.05-1.15 1.684 0 3.2.408 4.55 1.225.2.117.25.3.15.55l-1.1 2.275c-.116.25-.291.3-.525.15-1.183-.65-2.291-.975-3.325-.975-.4 0-.716.067-.95.2a.55.55 0 0 0-.3.5c0 .267.125.475.375.625.25.15.634.3 1.15.45.084.017.309.075.675.175.384.1.642.175.775.225.15.05.367.125.65.225.3.083.559.183.775.3.217.117.434.242.65.375 1.084.733 1.625 1.825 1.625 3.275 0 1.317-.491 2.375-1.475 3.175-1.033.833-2.375 1.25-4.025 1.25-1.816 0-3.458-.408-4.925-1.225-.233-.133-.283-.325-.15-.575l1.075-2.275c.117-.25.3-.3.55-.15 1.117.683 2.284 1.025 3.5 1.025ZM71.06 61.605l2.25-6.6c.03-.11.105-.165.225-.165h.87c.13 0 .17.07.12.21l-2.775 7.83c-.04.11-.12.165-.24.165h-.915c-.11 0-.185-.055-.225-.165l-2.07-6h-.03l-2.07 6c-.04.11-.12.165-.24.165h-.915c-.12 0-.2-.055-.24-.165l-2.745-7.83c-.05-.14-.01-.21.12-.21h.87c.12 0 .195.055.225.165l2.22 6.6h.03l2.205-6.6c.03-.11.105-.165.225-.165h.675c.12 0 .195.055.225.165l2.175 6.6h.03Zm4.753-6.765h5.655c.09 0 .135.05.135.15v.675c0 .1-.045.15-.135.15h-4.71v2.61h4.095c.1 0 .15.05.15.15v.675c0 .1-.05.15-.15.15h-4.095v2.625h4.71c.09 0 .135.05.135.15v.69c0 .09-.045.135-.135.135h-5.655c-.1 0-.15-.045-.15-.135V54.99c0-.1.05-.15.15-.15ZM86.677 63h-3.525c-.1 0-.15-.045-.15-.135V54.99c0-.1.05-.15.15-.15h2.865c.79 0 1.395.15 1.815.45.58.38.87.925.87 1.635 0 .87-.365 1.465-1.095 1.785v.06c.57.09 1.005.315 1.305.675.31.36.465.815.465 1.365 0 .73-.26 1.28-.78 1.65-.52.36-1.16.54-1.92.54Zm.945-5.88c0-.5-.21-.875-.63-1.125-.29-.16-.635-.24-1.035-.24h-1.86v2.67h1.725c.54 0 .91-.05 1.11-.15.46-.24.69-.625.69-1.155Zm.645 3.54c0-.54-.24-.935-.72-1.185-.28-.15-.8-.225-1.56-.225h-1.89v2.85h2.235c.43 0 .785-.06 1.065-.18.58-.22.87-.64.87-1.26Zm8.94 1.575c.57 0 1-.11 1.29-.33.36-.27.54-.65.54-1.14 0-.6-.46-1.045-1.38-1.335-.14-.05-.346-.115-.616-.195-.26-.08-.475-.145-.645-.195-.17-.05-.365-.12-.585-.21-.21-.1-.395-.205-.555-.315-.55-.38-.825-.93-.825-1.65 0-.67.24-1.19.72-1.56.51-.39 1.24-.585 2.19-.585.86 0 1.65.21 2.37.63.07.04.085.1.045.18l-.285.6c-.04.09-.105.105-.195.045-.65-.37-1.315-.555-1.995-.555-.6 0-1.05.105-1.35.315-.3.21-.45.52-.45.93 0 .32.1.57.3.75.21.18.515.34.915.48.17.06.435.14.795.24.37.1.695.205.975.315.29.1.545.22.765.36.59.42.885.985.885 1.695 0 .78-.285 1.39-.855 1.83-.53.39-1.215.585-2.055.585-1.05 0-1.96-.24-2.73-.72-.07-.04-.085-.105-.045-.195l.285-.6c.04-.09.105-.105.195-.045.67.45 1.435.675 2.295.675ZM101 54.84h6.45c.1 0 .15.05.15.15v.69c0 .09-.05.135-.15.135h-2.67v7.05c0 .09-.05.135-.15.135h-.81c-.1 0-.15-.045-.15-.135v-7.05H101c-.09 0-.135-.045-.135-.135v-.69c0-.1.045-.15.135-.15Zm14.848.15v4.77c0 1.1-.335 1.945-1.005 2.535-.63.55-1.485.825-2.565.825-1.09 0-1.95-.275-2.58-.825-.67-.59-1.005-1.435-1.005-2.535v-4.77c0-.1.045-.15.135-.15h.81c.1 0 .15.05.15.15v4.725c0 .79.24 1.405.72 1.845.43.37 1.02.555 1.77.555s1.335-.185 1.755-.555c.48-.44.72-1.055.72-1.845V54.99c0-.1.045-.15.135-.15h.825c.09 0 .135.05.135.15Zm4.956 8.01h-2.745c-.1 0-.15-.045-.15-.135V54.99c0-.1.05-.15.15-.15h2.925c1.49 0 2.625.43 3.405 1.29.63.71.945 1.645.945 2.805 0 1.64-.615 2.8-1.845 3.48-.69.39-1.585.585-2.685.585Zm-1.8-7.2v6.255h1.74c.84 0 1.52-.145 2.04-.435.96-.5 1.44-1.395 1.44-2.685 0-.91-.24-1.63-.72-2.16-.57-.65-1.455-.975-2.655-.975h-1.845Zm8.09-.81c0-.1.05-.15.15-.15h.81c.09 0 .135.05.135.15v7.875c0 .09-.045.135-.135.135h-.81c-.1 0-.15-.045-.15-.135V54.99Zm4.722 1.845c-.49.58-.735 1.275-.735 2.085s.245 1.505.735 2.085c.6.73 1.4 1.095 2.4 1.095s1.8-.365 2.4-1.095c.49-.58.735-1.275.735-2.085s-.245-1.505-.735-2.085c-.6-.73-1.4-1.095-2.4-1.095s-1.8.365-2.4 1.095Zm-.99 4.725c-.59-.75-.885-1.63-.885-2.64 0-1.01.295-1.89.885-2.64.82-1.04 1.95-1.56 3.39-1.56 1.44 0 2.57.52 3.39 1.56.59.75.885 1.63.885 2.64 0 1.01-.295 1.89-.885 2.64-.8 1.04-1.93 1.56-3.39 1.56-1.46 0-2.59-.52-3.39-1.56Z" fill="#505050"/><path d="M25.692 24.704c-.74-1.01-2.007-1.693-3.264-1.79-1.5-.115-2.874.385-3.897 1.473-.77.817-1.15 1.885-1.5 2.924-.195.558-.439 1.116-.536 1.703a3.286 3.286 0 0 0-1.656.606c-.721.52-1.16 1.3-1.55 2.078-.399.8-.584 1.694-.448 2.589.059.365.166.721.263 1.077 0 .02.01.039.02.068-.127.153-.244.298-.36.452-.702.933-1.193 1.98-.764 3.116.185.48.217 1.057.5 1.5.205.452.669 1.124 1 1.5.214.308.647.205.92.474a4.389 4.389 0 0 0-.39.683c-.341.722-.244 1.492.127 2.107.01.02.02.039.02.058a4.058 4.058 0 0 0 2.396 2.242 3.71 3.71 0 0 0 1.276.192c.068.375.205.731.39 1.078.623 1.145 1.092 2.03 2.261 2.666.273.154.818.364 1.12.45-.069.386-.098.77-.108 1.175-.01.615-.051 1.259-.012 1.875.01.135-.01.355 0 .5-.039.298.052.472-.026.77-.098.337-.147.709 0 1.045-.234.472-.244.947-.273 1.467-.01.212.243.289.39.192.038.01.068.01.107 0 .068-.019.136-.028.204-.048a.207.207 0 0 0 .156.058c1.286.038 2.611.173 3.888.01.272-.039.535-.097.798-.154.332-.077.595-.058.926-.039.068 0 .127 0 .195-.01.107.145.36.078.429-.086.068-.183.126-.356.165-.548.02-.097.119-.1.041-.157.282-.404.28-.998.252-1.527-.069-1.145-.224-2.28-.273-3.425-.01-.318-.02-.626-.02-.943v-.615a37.218 37.218 0 0 1 .448-5.1c.186-1.232.351-2.53.04-3.752a6.075 6.075 0 0 0-.156-.5c.01-.203.019-.405.019-.607.059-2.164.117-4.33.166-6.494.02-.577-.04-1.078-.41-1.559-.068-.096.031-.392-.066-.478.068-.962-.04-1.715.057-2.677.078-.818.106-1.9-.557-2.323 0 .038 0-.048 0 0-.107-.78-.749-1.381-1.246-1.968-.097-.116-.214-.318-.312-.424" fill="#C7C8CA"/><path opacity=".2" d="M28.517 34.269c-.069-.539-.254-1.03-.293-1.568a.592.592 0 0 0-.087-.25c.078-.241.136-.491.165-.76.059-.491.04-.992.03-1.482-.01-.943-.03-1.896-.186-2.829-.282-1.636-1.256-2.973-2.747-3.752C22.329 22.04 17.838 23.575 17 27c-.214.885-.058 1.596 0 2.5.049.818.264 1.96 1.082 2.344.175.077.41-.057.341-.26-.41-1.298-.546-2.578-.302-3.925.263-1.424 1.052-2.54 2.387-3.165 1.335-.626 3.01-.635 4.316.086 1.179.645 1.91 1.819 2.134 3.118.146.885.136 1.799.146 2.694 0 .433-.02.865.01 1.298.02.231.058.443.107.655-.585-.058-1.267.202-1.627.606-.546.596-.936 1.991-.04 2.463.186.096.498.067.595-.154a1.55 1.55 0 0 0 .156-.616c0-.192.049-.356.137-.53a.905.905 0 0 1 .43-.373h.5s.5 0 .5.5c-.02.53.304 2.48.352 3 .04.414.088.83.108 1.244-.02.212-.04.546-.059.758-.097.818-.058.856 0 0 .088-1.135.175-2.27.253-3.396.04-.53.059-1.049-.01-1.578Zm-12.071-4.918c-.058-.048-.146-.077-.195-.125-.097-.116-.234-.02-.263.096-.136.048-.273.106-.38.144-.292.106-.584.212-.867.337-.555.26-1.023.635-1.325 1.174-.594 1.039-1.315 2.81-.672 3.954a.57.57 0 0 0 .419.27 5.364 5.364 0 0 0-.215.279c-.71.981-.847 2.213-.672 3.377a6.122 6.122 0 0 0 1.315 2.992c.478.587 1.706 1.924 2.582 1.443.098-.058.176-.173.166-.289-.03-.385-.331-.644-.614-.885-.331-.298-.662-.577-.935-.933-.526-.683-.916-1.434-1.101-2.28-.175-.837-.146-1.76.312-2.502a3.1 3.1 0 0 1 .838-.866c.38-.269.604-.471.798-.894.059-.126.04-.27-.097-.356-.633-.385-1.267-.126-1.802.307 0-.202-.04-.413-.059-.586-.068-.645.136-1.3.331-1.905.195-.635.42-1.155 1.014-1.52.428-.27 1.09-.395 1.412-.79.108-.144.146-.327.01-.442Z" fill="#505050"/><path opacity=".2" d="M17.85 39.732c-.332-.298-.76-.308-1.112-.568-.263-.192-.477-.48-.516-.808a1.57 1.57 0 0 1 .185-.981c.185-.327.478-.577.614-.914.097-.221-.185-.49-.41-.404-.574.212-1.003.346-1.373.875a2.44 2.44 0 0 0-.438 1.79c.097.645.438 1.241.954 1.655.527.423 1.316.798 1.969.423.35-.221.457-.78.126-1.068Zm7.258-2.511c-.02-.192-.283-.289-.38-.106-.565 1.03-1.218 2.223-2.446 2.511-.487.116-1.266.193-1.734-.057-.263-.135-.429-.433-.604-.655a5.807 5.807 0 0 0-.312-.375c-.097-.096-.273-.173-.34-.288a.1.1 0 0 0-.128-.039c-.896.49-.272 1.636.244 2.203.672.732 1.832.837 2.767.712.867-.115 1.773-.471 2.348-1.154.682-.799.663-1.751.585-2.752Zm-1.93-4.589c-.409-.741-1.422-.712-2.055-.298-.604.394-1.082 1.067-1.277 1.76-.194.712-.01 1.414.439 1.992.195.25.419.462.643.683.224.221.419.471.73.587.147.057.312-.058.351-.193.234-.866-.993-1.433-1.003-2.29-.01-.442.214-.885.516-1.202.137-.145.332-.356.546-.337.331.029.409.231.78.106.34-.125.506-.481.33-.808Zm2.446 15.008c-.429.049-.809.26-1.237.318-.4.048-.838.01-1.209-.144-.34-.135-.662-.385-.789-.731-.087-.231-.058-.481-.058-.722-.01-.279-.136-.423-.185-.664-.03-.125-.195-.221-.322-.173-.682.27-.838 1-.76 1.674.078.712.556 1.29 1.14 1.684.556.375 1.238.548 1.91.548.643-.01 1.549-.135 2.007-.625.36-.395.136-1.222-.497-1.164Z" fill="#505050"/><path opacity=".2" d="M24.085 50.45c-1.569.414-3.527.077-4.239-1.559-.33-.75-.302-1.731-.204-2.53.107-.827.35-1.703.643-2.482.03-.077-.02-.173-.088-.202-.136-.068-.214-.116-.36-.068-.02.01-.04.039-.03.058.03.029.05.067.069.096-.858.607-1.296 1.482-1.5 2.512-.235 1.125-.254 2.318.253 3.386 1.013 2.165 3.673 2.877 5.865 2.223.916-.28.526-1.675-.41-1.434Z" fill="#505050"/><path opacity=".2" d="M27.729 57.3c-.955.173-1.92-.048-2.865-.192-.76-.116-1.51-.202-2.26-.135-.117-.635-.088-1.28-.059-1.934.049-.837.263-1.962-.146-2.732-.185-.337-.633-.27-.828 0-.283.385-.302.885-.35 1.347-.06.52-.108 1.03-.147 1.549-.068.943-.068 1.895.244 2.8.136.384.263 1.093.682.997.945-.231 2.055-.154 3 0 1.013.163 1.977.192 3 0 .965-.164.683-1.873-.271-1.7Z" fill="#505050"/><path d="M35.153 13.688c-.565.75-1.014 1.645-1.481 2.463-.224.385-1.15 1.77-.439 2.107.819.404 1.433-.78 1.793-1.328.516-.789 1.12-1.587 1.53-2.424.467-.953-.78-1.636-1.403-.818Zm11.399 5.07c-.965.096-1.949.837-2.709 1.405a12.15 12.15 0 0 0-1.15.952c-.34.318-.788.741-.857 1.222-.058.404.224.731.653.645.439-.087.8-.452 1.13-.731a13.838 13.838 0 0 1 2.173-1.501c.429-.24.926-.404 1.286-.741.429-.414.117-1.318-.526-1.25Zm-23.675-1.27c-.205-.895-.8-1.78-1.306-2.55-.516-.779-1.12-1.635-1.958-2.087-.624-.337-1.277.365-.945.923.33.75.867 1.396 1.305 2.088.468.741.78 1.578 1.267 2.31.555.827 1.87.317 1.637-.684Zm-8.243 3.56c-.468-.24-.994-.366-1.5-.52a37.099 37.099 0 0 0-1.472-.442c-.672-.183-2.046-.597-2.543.115a.242.242 0 0 0-.039.164c0 .135.04.26.108.366 0 .019.02.038.029.048.127.182.331.336.487.471.38.308.896.471 1.354.635.448.173.906.308 1.364.462.478.154.965.375 1.462.452.477.067.945-.077 1.14-.548.175-.433.048-.982-.39-1.203ZM9.82 29.591c-.837-.192-1.763-.163-2.63-.22-.672-.049-1.86-.26-2.357.298-.127.134-.176.355-.069.529.42.654 1.54.625 2.241.692.848.077 1.764.25 2.611.202.829-.067 1.101-1.308.205-1.5Zm42.5-4.541c-.536-.288-1.082-.163-1.657-.057a14.35 14.35 0 0 0-1.539.375 6.388 6.388 0 0 0-1.393.596c-.224.135-.39.308-.536.51-.097.135-.156.366-.253.472-.137.134.01.317.175.298.01 0 .03 0 .04-.01.262.164.69.154.973.116.487-.068.984-.24 1.452-.375.448-.126.906-.231 1.374-.308.565-.097 1.052-.097 1.52-.472.37-.288.243-.933-.156-1.145Zm1.783 10.487c-.79-.48-2.007-.5-2.904-.442-.643.038-2.094.25-1.938 1.183.116.712 1.422.693 1.938.731.36.03.712.077 1.072.135.438.077.887.231 1.335.221.994-.019 1.344-1.318.497-1.828ZM9.47 39.915c-.253-1.29-1.939-.818-2.786-.577-1.004.288-2.241.596-2.884 1.453-.117.153-.098.432 0 .586.01.02.097.164.204.212.098.038.185.077.302.077.02 0 .195-.029.254-.048h.204c.497-.039 1.023-.231 1.51-.366.468-.125.936-.25 1.413-.356.38-.086.653.01 1.033-.01.526-.028.848-.461.75-.971Zm2.718 7.37c-.867.048-1.675.856-2.328 1.366-.653.51-1.462 1.097-1.851 1.828-.254.462.175 1.203.76.981.76-.298 1.432-.904 2.085-1.395.33-.24.662-.48.994-.712.36-.25.818-.51 1.013-.923.224-.491-.04-1.184-.673-1.145Zm2.358 5.647c-.594.626-.857 1.55-1.188 2.329-.341.798-.497 1.51-.4 2.376 0 .038.049.077.088.048a4.844 4.844 0 0 0 1.549-1.703c.41-.731 1.042-1.481 1.237-2.3.176-.711-.74-1.327-1.286-.75ZM53.85 43.35c-.38-.934-1.51-1.116-2.388-1.434-.409-.144-.818-.308-1.256-.337-.39-.029-.955.183-.926.664.049.837 1.003 1.251 1.676 1.559.75.346 1.724.914 2.523.433.283-.164.497-.558.37-.885Zm-1.861 5.85c-.712-.338-1.491-.55-2.232-.819-.604-.22-1.441-.663-2.085-.48a.498.498 0 0 0-.34.586c.146.683 1.061 1.213 1.617 1.55.672.403 1.471.827 2.24 1 .498.106 1.014-.106 1.209-.587.185-.423.058-1.03-.41-1.25Zm-4.18 6.551c-.215-.76-1.023-1.328-1.578-1.847a15.61 15.61 0 0 0-.848-.75c-.35-.29-.643-.405-1.062-.578-.439-.182-.935.356-.78.77.147.375.254.674.507.991.253.317.516.625.79.933.516.587 1.051 1.376 1.821 1.607.692.221 1.335-.462 1.15-1.126Z" fill="#505050"/><path d="M46.036 38.087c0 6.061-3.605 11.295-8.818 13.72v7.11H30.69V22.934c8.477 0 15.346 6.783 15.346 15.153Z" fill="#FFD335" stroke="#505050" stroke-miterlimit="10" stroke-linecap="round" stroke-linejoin="round"/><path d="M35.299 60.485v4.599c0 1.231-1.013 2.241-2.27 2.241h-7.327c-1.247 0-2.27-1-2.27-2.241v-4.6h11.867Z" stroke="#505050" stroke-miterlimit="10"/><path d="M17.937 31.68c-1.569-2.204-1.18-5.63 1.14-7.207 2.338-1.587 5.777-1.078 7.375 1.29.848 1.26 1.306 2.866 1.598 4.338.302 1.51.214 2.983.214 4.503v24.447l.488-.48c-2.553-.049-5.096-.087-7.649-.136l.487.482.03-6.745c0-.615-.975-.615-.975 0l-.029 6.745c0 .26.224.48.487.48 2.553.049 5.096.087 7.649.135a.492.492 0 0 0 .487-.48V46.447c0-4.166-.098-8.342 0-12.508.039-1.626 0-3.194-.41-4.791-.38-1.51-.896-3.117-1.9-4.358-1.919-2.377-5.592-2.877-8.174-1.26-2.864 1.789-3.585 5.926-1.656 8.639.35.5 1.198.02.838-.49Z" fill="#505050"/><path d="M16.33 28.1c-3.177 1.116-5.009 4.493-4.141 7.726.155.596 1.1.346.935-.26-.721-2.703.789-5.6 3.459-6.542.594-.202.34-1.135-.254-.924Z" fill="#505050"/><path d="M14.731 33.69c-1.178-.096-2.143 1.116-2.65 2.04a5.543 5.543 0 0 0-.652 3.386c.292 2.252 2.065 4.128 4.286 4.657.614.144.868-.78.264-.924-1.754-.413-3.186-1.808-3.537-3.57a4.593 4.593 0 0 1 .292-2.655c.302-.721 1.072-2.03 1.997-1.953.624.03.624-.933 0-.98Z" fill="#505050"/><path d="M13.806 42.426c-.819 1.068-.692 2.607.039 3.695.799 1.202 2.163 1.847 3.517 2.26.604.183.857-.74.263-.923-1.052-.318-2.163-.789-2.845-1.693-.633-.828-.78-1.992-.127-2.848.37-.5-.477-.972-.847-.49Z" fill="#505050"/><path d="M19.281 43.398c-1.792 1.847-2.367 4.656-1.12 6.946 1.305 2.415 4.082 2.838 6.547 2.155.604-.163.351-1.096-.263-.923-2.056.577-4.345.317-5.446-1.713-1.033-1.914-.516-4.262.964-5.782.439-.452-.253-1.135-.682-.683Z" fill="#505050"/><path d="M21.094 45.534c-.81 1.318-.517 3.146.73 4.098 1.247.953 3.118.76 4.2-.337.438-.442-.254-1.125-.692-.683-.75.76-2.056.924-2.923.26s-1.043-1.953-.487-2.857c.34-.53-.497-1.02-.828-.481Zm2.728-2.694c.243 2.184 2.679 3.434 4.579 2.184.516-.337.029-1.174-.487-.828-1.228.809-2.943.164-3.118-1.356-.068-.616-1.043-.616-.974 0Zm.565-4.984c-.069 1.472-1.004 2.877-2.543 3.146-1.423.25-2.835-.75-2.826-2.222 0-.616-.974-.616-.974 0-.01 1.982 1.832 3.434 3.78 3.184 2.105-.26 3.44-2.116 3.537-4.118.03-.606-.945-.606-.974.01Z" fill="#505050"/><path d="M21.688 36.99c-.906-.693-1.686-1.693-1.569-2.896.098-1.058 1.16-2.097 2.28-1.587.565.26 1.062-.578.487-.828-1.49-.673-3.156.193-3.624 1.703-.507 1.655.429 3.29 1.734 4.282.487.384 1.179-.299.692-.674Zm-1.628-7.399c-.184-1.462.887-2.838 2.456-2.722 1.481.115 2.338 1.578 1.968 2.925-.166.596.77.856.935.26.536-1.915-.72-3.916-2.757-4.128-2.104-.221-3.829 1.626-3.575 3.666.068.606 1.052.615.974 0Zm5.73 5.427c-.488-.79-.146-1.847.808-2.069.965-.211 1.746.597 1.668 1.51-.05.616.895.616.944 0 .126-1.558-1.335-2.809-2.875-2.443-1.559.366-2.211 2.165-1.393 3.483.341.529 1.179.048.848-.481Zm-9.636 1c-1.12.568-1.773 1.848-1.52 3.07.253 1.24 1.383 2.107 2.62 2.222.624.058.624-.904 0-.962-.808-.077-1.548-.722-1.685-1.52-.136-.818.351-1.617 1.072-1.982.555-.28.068-1.107-.487-.828Z" fill="#505050"/><path d="M23.714 65.084h11.293M23.675 62.65h11.37" stroke="#505050" stroke-miterlimit="10" stroke-linecap="round" stroke-linejoin="round"/><path d="M31.84 67.547c0 1.347-1.11 2.444-2.475 2.444-1.364 0-2.474-1.097-2.474-2.444 0-.077 0-.154.01-.231h4.92c.01.077.02.154.02.23Z" fill="#FFD335" stroke="#505050" stroke-miterlimit="10"/><path d="M30.69 42.686c2.105.24 3.722-.058 4.726-.337 1.218-.337 2.29-.654 2.533-1.491.244-.828-.36-1.982-1.072-2.117-1.393-.27-3.118 3.368-3.351 3.887a41.716 41.716 0 0 0-.643 3.04c-.838 5.08-.488 9.621.194 13.239" stroke="#505050" stroke-miterlimit="10"/><path d="M32.766 25.849c1.48.366 2.962.789 4.277 1.568 1.188.702 2.172 1.684 2.971 2.79 1.735 2.396 3.06 5.33 3.196 8.294.04.923 1.5.933 1.462 0-.137-3.262-1.55-6.533-3.488-9.15-.916-1.241-1.998-2.338-3.332-3.146-1.442-.866-3.07-1.357-4.697-1.76-.916-.212-1.305 1.173-.39 1.404Z" fill="#fff"/></svg>