<svg width="25" height="25" fill="none" xmlns="http://www.w3.org/2000/svg"><g opacity=".5" clip-path="url(#a)"><path d="M14.614 4.962a3.008 3.008 0 0 1 4.25 0l.353-.353-.354.353a3.009 3.009 0 0 1 0 4.25l-8.518 8.517a.367.367 0 1 1-.518-.518l8.518-8.518a2.273 2.273 0 0 0-1.606-3.877 2.26 2.26 0 0 0-1.606.665L3.553 17.06a3.932 3.932 0 0 0 0 5.555 3.906 3.906 0 0 0 2.777 1.15 3.905 3.905 0 0 0 2.777-1.15L20.96 10.764a5.551 5.551 0 0 0 1.635-3.95 5.55 5.55 0 0 0-1.635-3.948 5.59 5.59 0 0 0-7.898 0l-8.79 8.79a.367.367 0 1 1-.519-.519l8.79-8.79a6.326 6.326 0 0 1 8.935 0l.354-.353-.354.353a6.273 6.273 0 0 1 1.85 4.468 6.273 6.273 0 0 1-1.85 4.468L9.626 23.135A4.627 4.627 0 0 1 6.33 24.5a4.627 4.627 0 0 1-3.296-1.365 4.667 4.667 0 0 1 0-6.592l11.58-11.58Z" stroke="#474747"/></g><defs><clipPath id="a"><path fill="#fff" d="M0 0h25v25H0z"/></clipPath></defs></svg>